#define flashbits_width 15
#define flashbits_height 15
static unsigned char flash_bits[] = {
  0x00, 0x00, 0x00, 0x00, 0x00, 0x00, 0x00, 0x00, 0x00, 0x00, 0xC0, 0x10, 
  0xE0, 0x0E, 0xF0, 0x07, 0xF8, 0x03, 0x88, 0x01, 0x04, 0x00, 0x00, 0x00, 
  0x00, 0x00, 0x00, 0x00, 0x00, 0x00, };
