#define sun_width 15
#define sun_height 15
static unsigned char sun_bits[] = {
  0x80, 0x00, 0x80, 0x00, 0x04, 0x10, 0x08, 0x08, 0xE0, 0x03, 0x30, 0x06, 
  0x10, 0x0C, 0x17, 0x64, 0x10, 0x04, 0x30, 0x06, 0xE0, 0x03, 0x08, 0x08, 
  0x04, 0x10, 0x80, 0x00, 0x80, 0x00, };